HIERARCHY
ROOT Root
{
	OFFSET 0.00000 0.00000 0.00000
	CHANNELS 6 Xposition Yposition Zposition Zrotation Xrotation Yrotation
	JOINT Hip
	{
		OFFSET 0 0 0	
		CHANNELS 3 Zrotation Xrotation Yrotation
		JOINT Tummy
		{
			OFFSET 0 0.04 0	
			CHANNELS 3 Zrotation Xrotation Yrotation
			JOINT ChestBottom
			{
				OFFSET 0 0.194 0	
				CHANNELS 3 Zrotation Xrotation Yrotation
				JOINT ChestTop
				{
					OFFSET 0 0.166 0	
					CHANNELS 3 Zrotation Xrotation Yrotation
					JOINT LeftCollar
					{
						OFFSET 0 0.1 0	
						CHANNELS 3 Zrotation Xrotation Yrotation
						JOINT LeftUpperArm
						{
							OFFSET 0.156 -0.02 0.03	
							CHANNELS 3 Zrotation Xrotation Yrotation
							JOINT LeftForeArm
							{
								OFFSET 0.035 -0.27 -0.01	
								CHANNELS 3 Zrotation Xrotation Yrotation
								JOINT LeftHand
								{
									OFFSET 0.01 -0.27 0.01	
									CHANNELS 3 Zrotation Xrotation Yrotation
									End Site
									{
										OFFSET 0 -0.15 0
									}
								}
							}
						}
					}
					JOINT RightCollar
					{
						OFFSET 0 0.1 0	
						CHANNELS 3 Zrotation Xrotation Yrotation
						JOINT RightUpperArm
						{
							OFFSET -0.156 -0.02 0.03	
							CHANNELS 3 Zrotation Xrotation Yrotation
							JOINT RightForeArm
							{
								OFFSET -0.035 -0.27 -0.01	
								CHANNELS 3 Zrotation Xrotation Yrotation
								JOINT RightHand
								{
									OFFSET -0.01 -0.27 0.01	
									CHANNELS 3 Zrotation Xrotation Yrotation
									End Site
									{
										OFFSET 0 -0.15 0
									}
								}
							}
						}
					}
					JOINT Neck
					{
						OFFSET 0 0.1 0	
						CHANNELS 3 Zrotation Xrotation Yrotation
						JOINT Head
						{
							OFFSET 0 0.127 0.03	
							CHANNELS 3 Zrotation Xrotation Yrotation
							End Site
							{
								OFFSET 0 0.127 0.03
							}
						}
					}
				}
			}
		}
	}
	JOINT LeftHip
	{
		OFFSET 0 0 0	
		CHANNELS 3 Zrotation Xrotation Yrotation
		JOINT LeftThigh
		{
			OFFSET 0.088 -0.06 0	
			CHANNELS 3 Zrotation Xrotation Yrotation
			JOINT LeftLowerLeg
			{
				OFFSET 0 -0.39 0.02	
				CHANNELS 3 Zrotation Xrotation Yrotation
				JOINT LeftFootTop
				{
					OFFSET 0 -0.43 -0.02	
					CHANNELS 3 Zrotation Xrotation Yrotation
					JOINT LeftFootFront
					{
						OFFSET 0 -0.07 0.085	
						CHANNELS 3 Zrotation Xrotation Yrotation
						End Site
						{
							OFFSET 0 -0.005 0.09
						}
					}
				}
				JOINT LeftHeel
				{
					OFFSET 0 -0.43 -0.02	
					CHANNELS 3 Zrotation Xrotation Yrotation
					End Site
					{
						OFFSET 0 -0.075 -0.05
					}
				}
			}
		}
	}
	JOINT RightHip
	{
		OFFSET 0 0 0	
		CHANNELS 3 Zrotation Xrotation Yrotation
		JOINT RightThigh
		{
			OFFSET -0.088 -0.06 0	
			CHANNELS 3 Zrotation Xrotation Yrotation
			JOINT RightLowerLeg
			{
				OFFSET 0 -0.39 0.02	
				CHANNELS 3 Zrotation Xrotation Yrotation
				JOINT RightFootTop
				{
					OFFSET 0 -0.43 -0.02	
					CHANNELS 3 Zrotation Xrotation Yrotation
					JOINT RightFootFront
					{
						OFFSET 0 -0.07 0.085	
						CHANNELS 3 Zrotation Xrotation Yrotation
						End Site
						{
							OFFSET 0 -0.005 0.09
						}
					}
				}
				JOINT RightHeel
				{
					OFFSET 0 -0.43 -0.02	
					CHANNELS 3 Zrotation Xrotation Yrotation
					End Site
					{
						OFFSET 0 -0.075 -0.05
					}
				}
			}
		}
	}
}
MOTION
Frames: 12
Frame Time: 0.025
0 0.95546 0 -0 0 -0 0.095859 0.19373 1.1114 -0.037528 -0.1951 -1.5324 -0.037528 -0.1951 -1.5324 -0.031173 -0.16395 -1.2872 -0 0 -0 -0.1745 0.38837 3.1609 0.77195 -0.2247 -0.19034 -0.52886 0.010253 -2.2878 -0 0 -0 0.27655 0.39081 3.2049 -0.060614 0.045396 1.1756 -0.22518 -0.055826 -1.1418 -0.09738 0.5785 1.8704 -0.11553 0.41658 0.58287 0.095859 0.19373 1.1114 -0.15464 -0.21406 -0.85458 0.19277 0.24678 0.17327 2.5171 -3.6408 -0.47918 -0 0 -0 -0 0 -0 0.095859 0.19373 1.1114 -0.61894 0.16157 -6.316 0.77509 -0.46484 6.5838 -0.20287 0.14171 -1.0368 -0 0 1.5745e-10 -0 0 -0 
-5.9442e-05 0.95546 -7.1209e-05 -0 0 -0 0.12115 0.20884 0.95817 -0.063586 -0.20202 -1.5185 -0.063586 -0.20202 -1.5185 -0.053053 -0.16981 -1.2756 -0 0 -0 -0.1236 0.395 3.2763 0.77991 -0.23035 -0.11019 -0.53862 0.016359 -2.3699 -0 0 -0 0.32985 0.39654 3.3162 -0.05936 0.050708 1.1777 -0.23059 -0.059351 -1.1419 -0.067239 0.59212 1.9999 -0.10709 0.42366 0.72409 0.12115 0.20884 0.95817 -0.18006 -0.2246 -0.70143 0.1914 0.2397 0.17526 2.5235 -3.6395 -0.35097 -0.0011023 -0.00018035 -0.022413 -0 0 -0 0.12115 0.20884 0.95817 -0.6451 0.1418 -6.1622 0.77634 -0.46047 6.5832 -0.2044 0.14094 -1.037 -0.0066405 0.003124 0.00063344 -0 0 -0 
-0.00013448 0.95546 -0.00017193 -0 0 -0 0.13494 0.22112 0.45037 -0.081673 -0.20757 -1.2927 -0.081673 -0.20757 -1.2927 -0.068291 -0.17449 -1.0859 -0 0 -0 -0.079514 0.39972 3.1453 0.79104 -0.23813 0.0022794 -0.54586 0.024123 -2.4762 -0 0 -0 0.37704 0.39799 3.1796 -0.057511 0.05809 1.1805 -0.23809 -0.064314 -1.142 -0.044826 0.60701 1.9484 -0.1016 0.43326 0.86239 0.13494 0.22112 0.45037 -0.19207 -0.2321 -0.19387 0.18887 0.22985 0.17826 2.5335 -3.6349 -0.21068 -0.0029868 -0.0023072 -0.012733 -0 0 -0 0.13494 0.22112 0.45037 -0.66043 0.11909 -5.6535 0.77748 -0.45444 6.5829 -0.21252 0.14313 -1.0373 -0.014391 0.0043798 0.00076194 -0 0 -0 
-0.000227 0.95546 -0.00031034 -0 0 -0 0.11685 0.22267 -0.25417 -0.079026 -0.2083 -0.92396 -0.079026 -0.2083 -0.92396 -0.066157 -0.17506 -0.77611 -0 0 -0 -0.059296 0.39996 2.8058 0.80242 -0.24612 0.12114 -0.53205 0.047622 -2.4945 -0 0 -0 0.39895 0.39367 2.8338 -0.055051 0.065612 1.1832 -0.24571 -0.069504 -1.1419 -0.041282 0.61634 1.7403 -0.099085 0.44178 0.96403 0.11685 0.22267 -0.25417 -0.17014 -0.2303 0.51013 0.18447 0.22101 0.18198 2.5481 -3.6187 -0.003388 -0.0027221 -0.011678 -0.044581 -0 0 -0 0.11685 0.22267 -0.25417 -0.64377 0.10457 -4.9478 0.77696 -0.44861 6.5841 -0.22683 0.14682 -1.0389 -0.027133 0.0053409 0.0056456 -0 0 -0 
-0.00033763 0.95546 -0.0004953 -0 0 -0 0.096619 0.22365 -0.65681 -0.072339 -0.2103 -0.65964 -0.072339 -0.2103 -0.65964 -0.060602 -0.17671 -0.55408 -0 0 -0 0.10553 0.37392 2.5294 0.66061 -0.21779 0.18502 -0.52662 0.075845 -2.4799 -0 0 -0 0.40737 0.3942 2.4852 -0.052196 0.071833 1.1863 -0.25181 -0.073803 -1.1445 -0.035354 0.61541 1.5973 -0.090002 0.43902 1.0431 0.096619 0.22365 -0.65681 -0.1462 -0.22899 0.91181 0.17541 0.22073 0.18935 2.554 -3.5716 0.33165 0.014747 -0.034964 -0.11871 -0 0 -0 0.096619 0.22365 -0.65681 -0.62361 0.094682 -4.544 0.77402 -0.44369 6.5864 -0.28368 0.16172 -0.93332 -0.0043606 -0.0016139 -0.053358 -0 0 -0 
-0.0004652 0.95546 -0.00073509 -0 0 -0 0.087741 0.22784 -0.73878 -0.068038 -0.21603 -0.49243 -0.068038 -0.21603 -0.49243 -0.057027 -0.1815 -0.41362 -0 0 -0 -0.027644 0.42237 2.2364 0.81175 -0.27056 0.28423 -0.53185 0.1059 -2.3781 -0 0 -0 0.40649 0.40282 2.1134 -0.051911 0.073645 1.194 -0.25271 -0.074396 -1.1733 -0.0017533 0.58379 1.5487 -0.054566 0.40229 1.1351 0.087741 0.22784 -0.73878 -0.13694 -0.23432 0.99335 0.15811 0.24595 0.22464 2.5377 -3.4784 0.84081 0.032222 -0.057525 -0.15896 -0 0 -0 0.087741 0.22784 -0.73878 -0.61246 0.082854 -4.4605 0.76797 -0.43756 6.5883 -0.30342 0.17231 -0.80894 -0.0087539 -0.00094884 -0.024657 -0 0 -0 
-0.00060629 0.95547 -0.001035 -0 0 -0 0.085938 0.2325 -0.70201 -0.067979 -0.22306 -0.28101 -0.067979 -0.22306 -0.28101 -0.057029 -0.1874 -0.23603 -0 0 -0 0.016268 0.44519 1.9886 0.79729 -0.29325 0.24269 -0.5567 0.13115 -2.2544 -0 0 -0 0.40865 0.41391 1.5658 -0.057094 0.069422 1.2136 -0.24605 -0.069271 -1.2827 0.10727 0.40062 1.4992 -0.0071428 0.4425 1.1528 0.085938 0.2325 -0.70201 -0.14201 -0.24596 0.96741 0.13455 0.30566 0.33495 2.5063 -3.3318 1.4317 0.0052915 -0.051505 -0.049411 -0 0 -0 0.085938 0.2325 -0.70201 -0.60431 0.061224 -4.489 0.75726 -0.4218 6.5872 -0.31532 0.18428 -0.67156 -0.0035331 0.00056137 0.036509 -0 0 -0 
-0.00075532 0.95548 -0.0013949 -0 0 -0 0.093759 0.23509 -0.5767 -0.082593 -0.22686 -0.038051 -0.082593 -0.22686 -0.038051 -0.069368 -0.19057 -0.031941 -0 0 -0 0.10034 0.45864 1.5636 0.76983 -0.31528 0.44285 -0.5953 0.14796 -2.2631 -0 0 -0 0.44251 0.41712 0.9184 -0.064 0.06336 1.2431 -0.23721 -0.062132 -1.4803 0.18873 0.43635 1.2329 0.1196 0.24567 1.2016 0.093759 0.23509 -0.5767 -0.16335 -0.25733 0.91383 0.11576 0.37192 0.47854 2.5612 -3.138 1.9902 -0.12564 0.0043212 0.10221 -0 0 -0 0.093759 0.23509 -0.5767 -0.60063 0.02704 -4.5665 0.74221 -0.39089 6.5811 -0.3222 0.19523 -0.58842 0.0014768 0.0016202 0.044006 -0 0 -0 
-0.00090515 0.95549 -0.0018077 -0 0 -0 0.11145 0.23275 -0.3273 -0.098972 -0.219 0.094269 -0.098972 -0.219 0.094269 -0.083161 -0.18395 0.079211 -0 0 -0 0.16608 0.43857 1.1538 0.73847 -0.32475 0.99699 -0.628 0.14777 -2.4366 -0 0 -0 0.47122 0.39351 0.45632 -0.067096 0.061371 1.2696 -0.18434 0.016975 -1.4697 0.27439 0.37249 1.0948 0.19071 0.18893 1.1749 0.11145 0.23275 -0.3273 -0.19412 -0.25598 0.84751 0.10815 0.40825 0.50568 2.9738 -2.9741 2.4728 -0.37247 0.12005 0.14844 -0 0 -0 0.11145 0.23275 -0.3273 -0.60661 -0.0045912 -4.6801 0.73065 -0.35555 6.578 -0.32433 0.19635 -0.6775 -0.0058857 0.0082479 0.044879 -0 0 -0 
-0.0010482 0.9555 -0.0022579 -0 0 -0 0.13289 0.22489 0.12407 -0.087368 -0.19696 0.072716 -0.087368 -0.19696 0.072716 -0.073406 -0.16544 0.061101 -0 0 -0 0.13015 0.38273 0.83847 0.69177 -0.3206 1.6037 -0.62825 0.13359 -2.6405 -0 0 -0 0.41615 0.33712 0.14937 -0.065451 0.064855 1.285 -0.14031 0.087745 -1.4033 0.26896 0.32331 1.0533 0.1952 0.15816 1.1152 0.13289 0.22489 0.12407 -0.22344 -0.23952 0.60542 0.10646 0.41433 0.41115 4.0022 -3.0023 2.8641 -0.48564 0.24583 0.11511 -0 0 -0 0.13289 0.22489 0.12407 -0.62192 -0.015598 -4.9423 0.72949 -0.33 6.59 -0.33807 0.20191 -0.834 -0.0096494 0.0046617 0.0085336 -0 0 -0 
-0.0011779 0.95552 -0.0027229 -0 0 -0 0.14941 0.22332 0.78007 -0.074541 -0.1829 -0.14336 -0.074541 -0.1829 -0.14336 -0.062584 -0.15365 -0.1204 -0 0 -0 0.083506 0.34447 0.81263 0.49142 -0.30656 1.9488 -0.45473 0.10471 -2.7066 -0 0 -0 0.36111 0.29781 0.12656 -0.060449 0.071653 1.2915 -0.14681 0.089552 -1.3056 0.24157 0.30003 1.1795 0.17961 0.14587 1.0597 0.14941 0.22332 0.78007 -0.24369 -0.22698 0.069988 0.10487 0.40859 0.32415 5.7121 -3.3095 3.1685 -0.29245 0.2137 0.059241 -0 0 -0 0.14941 0.22332 0.78007 -0.63651 -0.016296 -5.4622 0.73419 -0.31521 6.6189 -0.35625 0.20159 -0.99055 -0.011595 0.0022068 0.0020848 -0 0 -0 
-0.0012927 0.95554 -0.0031842 -0 0 -0 0.17436 0.24909 1.4203 -0.081629 -0.19031 -0.43522 -0.081629 -0.19031 -0.43522 -0.068471 -0.15991 -0.36557 -0 0 -0 0.079702 0.34012 1.0055 -0.12382 -0.33022 1.9661 0.15004 0.10476 -2.6439 -0 0 -0 0.35276 0.29138 0.31507 -0.054958 0.079882 1.2946 -0.15411 0.087255 -1.2669 0.23921 0.30462 1.4082 0.17267 0.14318 1.0433 0.17436 0.24909 1.4203 -0.27126 -0.24395 -0.53481 0.10167 0.40017 0.29459 7.8615 -3.819 3.3863 0.062179 -0.0059207 0.040741 -0 0 -0 0.17436 0.24909 1.4203 -0.6613 -0.038486 -6.0517 0.73734 -0.30612 6.6424 -0.37296 0.19936 -1.0631 -0.012067 0.0012715 0.0021243 -0 0 -0 
